<mxfile host="Electron" agent="Mozilla/5.0 (X11; Linux x86_64) AppleWebKit/537.36 (KHTML, like Gecko) draw.io/27.0.9 Chrome/134.0.6998.205 Electron/35.4.0 Safari/537.36" version="27.0.9">
  <diagram name="Page-1" id="tYHgMKNAonmJKkYe2Xz7">
    <mxGraphModel dx="1360" dy="843" grid="1" gridSize="10" guides="1" tooltips="1" connect="1" arrows="1" fold="1" page="1" pageScale="1" pageWidth="850" pageHeight="1100" math="0" shadow="0">
      <root>
        <mxCell id="0" />
        <mxCell id="1" parent="0" />
        <mxCell id="5xVi7-KfFvpauY7fGqG0-3" style="edgeStyle=orthogonalEdgeStyle;rounded=0;orthogonalLoop=1;jettySize=auto;html=1;exitX=0.5;exitY=1;exitDx=0;exitDy=0;entryX=0.5;entryY=0;entryDx=0;entryDy=0;strokeWidth=2;" edge="1" parent="1" source="5xVi7-KfFvpauY7fGqG0-1" target="5xVi7-KfFvpauY7fGqG0-2">
          <mxGeometry relative="1" as="geometry" />
        </mxCell>
        <mxCell id="5xVi7-KfFvpauY7fGqG0-1" value="&lt;b&gt;ADMIN USER&lt;/b&gt;" style="rounded=0;whiteSpace=wrap;html=1;strokeWidth=2;" vertex="1" parent="1">
          <mxGeometry x="340" y="50" width="120" height="60" as="geometry" />
        </mxCell>
        <mxCell id="5xVi7-KfFvpauY7fGqG0-6" style="edgeStyle=orthogonalEdgeStyle;rounded=0;orthogonalLoop=1;jettySize=auto;html=1;exitX=1;exitY=0.5;exitDx=0;exitDy=0;entryX=0;entryY=0.5;entryDx=0;entryDy=0;strokeWidth=2;" edge="1" parent="1" source="5xVi7-KfFvpauY7fGqG0-2" target="5xVi7-KfFvpauY7fGqG0-5">
          <mxGeometry relative="1" as="geometry" />
        </mxCell>
        <mxCell id="5xVi7-KfFvpauY7fGqG0-7" value="&lt;b&gt;Distrubute Key&lt;/b&gt;" style="edgeLabel;html=1;align=center;verticalAlign=middle;resizable=0;points=[];" vertex="1" connectable="0" parent="5xVi7-KfFvpauY7fGqG0-6">
          <mxGeometry x="0.0421" y="2" relative="1" as="geometry">
            <mxPoint as="offset" />
          </mxGeometry>
        </mxCell>
        <mxCell id="5xVi7-KfFvpauY7fGqG0-9" style="edgeStyle=orthogonalEdgeStyle;rounded=0;orthogonalLoop=1;jettySize=auto;html=1;exitX=0.5;exitY=1;exitDx=0;exitDy=0;entryX=0.5;entryY=0;entryDx=0;entryDy=0;strokeWidth=2;" edge="1" parent="1" source="5xVi7-KfFvpauY7fGqG0-2" target="5xVi7-KfFvpauY7fGqG0-8">
          <mxGeometry relative="1" as="geometry">
            <Array as="points">
              <mxPoint x="400" y="290" />
              <mxPoint x="400" y="290" />
            </Array>
          </mxGeometry>
        </mxCell>
        <mxCell id="5xVi7-KfFvpauY7fGqG0-2" value="&lt;b&gt;REGISTRATION KEY&amp;nbsp;&lt;/b&gt;" style="rounded=0;whiteSpace=wrap;html=1;strokeWidth=2;" vertex="1" parent="1">
          <mxGeometry x="340" y="190" width="120" height="60" as="geometry" />
        </mxCell>
        <mxCell id="5xVi7-KfFvpauY7fGqG0-11" style="edgeStyle=orthogonalEdgeStyle;rounded=0;orthogonalLoop=1;jettySize=auto;html=1;exitX=0.5;exitY=1;exitDx=0;exitDy=0;entryX=1;entryY=0.5;entryDx=0;entryDy=0;strokeWidth=2;" edge="1" parent="1" source="5xVi7-KfFvpauY7fGqG0-5" target="5xVi7-KfFvpauY7fGqG0-10">
          <mxGeometry relative="1" as="geometry" />
        </mxCell>
        <mxCell id="5xVi7-KfFvpauY7fGqG0-16" value="&lt;b&gt;User Registration With Key&lt;/b&gt;" style="edgeLabel;html=1;align=center;verticalAlign=middle;resizable=0;points=[];" vertex="1" connectable="0" parent="5xVi7-KfFvpauY7fGqG0-11">
          <mxGeometry x="0.4792" y="3" relative="1" as="geometry">
            <mxPoint y="-3" as="offset" />
          </mxGeometry>
        </mxCell>
        <mxCell id="5xVi7-KfFvpauY7fGqG0-5" value="&lt;b&gt;USER&lt;/b&gt;" style="rounded=0;whiteSpace=wrap;html=1;strokeWidth=2;" vertex="1" parent="1">
          <mxGeometry x="620" y="190" width="120" height="60" as="geometry" />
        </mxCell>
        <mxCell id="5xVi7-KfFvpauY7fGqG0-8" value="&lt;b&gt;DATABASE&lt;/b&gt;" style="rounded=0;whiteSpace=wrap;html=1;strokeWidth=2;" vertex="1" parent="1">
          <mxGeometry x="340" y="330" width="120" height="60" as="geometry" />
        </mxCell>
        <mxCell id="5xVi7-KfFvpauY7fGqG0-14" style="edgeStyle=orthogonalEdgeStyle;rounded=0;orthogonalLoop=1;jettySize=auto;html=1;exitX=0.5;exitY=0;exitDx=0;exitDy=0;entryX=0.5;entryY=1;entryDx=0;entryDy=0;strokeWidth=2;" edge="1" parent="1" source="5xVi7-KfFvpauY7fGqG0-10" target="5xVi7-KfFvpauY7fGqG0-8">
          <mxGeometry relative="1" as="geometry" />
        </mxCell>
        <mxCell id="5xVi7-KfFvpauY7fGqG0-15" value="&lt;b&gt;Validate Registration Key&lt;/b&gt;" style="edgeLabel;html=1;align=center;verticalAlign=middle;resizable=0;points=[];" vertex="1" connectable="0" parent="5xVi7-KfFvpauY7fGqG0-14">
          <mxGeometry x="0.44" y="-4" relative="1" as="geometry">
            <mxPoint x="-4" y="22" as="offset" />
          </mxGeometry>
        </mxCell>
        <mxCell id="5xVi7-KfFvpauY7fGqG0-20" style="edgeStyle=orthogonalEdgeStyle;rounded=0;orthogonalLoop=1;jettySize=auto;html=1;exitX=0.5;exitY=1;exitDx=0;exitDy=0;entryX=0.5;entryY=0;entryDx=0;entryDy=0;strokeWidth=2;" edge="1" parent="1" source="5xVi7-KfFvpauY7fGqG0-10" target="5xVi7-KfFvpauY7fGqG0-18">
          <mxGeometry relative="1" as="geometry" />
        </mxCell>
        <mxCell id="5xVi7-KfFvpauY7fGqG0-21" style="edgeStyle=orthogonalEdgeStyle;rounded=0;orthogonalLoop=1;jettySize=auto;html=1;exitX=0.5;exitY=1;exitDx=0;exitDy=0;entryX=0.5;entryY=0;entryDx=0;entryDy=0;strokeWidth=2;" edge="1" parent="1" source="5xVi7-KfFvpauY7fGqG0-10" target="5xVi7-KfFvpauY7fGqG0-19">
          <mxGeometry relative="1" as="geometry" />
        </mxCell>
        <mxCell id="5xVi7-KfFvpauY7fGqG0-10" value="&lt;b&gt;REGISTRATION&lt;/b&gt;" style="rounded=0;whiteSpace=wrap;html=1;strokeWidth=2;" vertex="1" parent="1">
          <mxGeometry x="340" y="500" width="120" height="60" as="geometry" />
        </mxCell>
        <mxCell id="5xVi7-KfFvpauY7fGqG0-18" value="&lt;b&gt;VALID_KEY&lt;/b&gt;" style="rounded=0;whiteSpace=wrap;html=1;strokeWidth=2;" vertex="1" parent="1">
          <mxGeometry x="210" y="630" width="120" height="60" as="geometry" />
        </mxCell>
        <mxCell id="5xVi7-KfFvpauY7fGqG0-19" value="&lt;b&gt;INVALID KEY&lt;/b&gt;" style="rounded=0;whiteSpace=wrap;html=1;strokeWidth=2;" vertex="1" parent="1">
          <mxGeometry x="470" y="630" width="120" height="60" as="geometry" />
        </mxCell>
      </root>
    </mxGraphModel>
  </diagram>
</mxfile>
